<?xml version="1.0" standalone="no"?><svg xmlns="http://www.w3.org/2000/svg" viewBox="0 0 1440 320"><path fill="#ffffff" fill-opacity="1" d="M0,96L30,90.7C60,85,120,75,180,58.7C240,43,300,21,360,53.3C420,85,480,171,540,176C600,181,660,107,720,64C780,21,840,11,900,37.3C960,64,1020,128,1080,138.7C1140,149,1200,107,1260,117.3C1320,128,1380,192,1410,224L1440,256L1440,320L1410,320C1380,320,1320,320,1260,320C1200,320,1140,320,1080,320C1020,320,960,320,900,320C840,320,780,320,720,320C660,320,600,320,540,320C480,320,420,320,360,320C300,320,240,320,180,320C120,320,60,320,30,320L0,320Z"></path></svg>